<svg id="visual" viewBox="0 0 900 600" width="900" height="600" xmlns="http://www.w3.org/2000/svg" xmlns:xlink="http://www.w3.org/1999/xlink" version="1.1"><rect x="0" y="0" width="900" height="600" fill="#331C00"></rect><path d="M0 172L21.5 167.3C43 162.7 86 153.3 128.8 148.2C171.7 143 214.3 142 257.2 148.5C300 155 343 169 385.8 170.2C428.7 171.3 471.3 159.7 514.2 153C557 146.3 600 144.7 642.8 146.3C685.7 148 728.3 153 771.2 160.8C814 168.7 857 179.3 878.5 184.7L900 190L900 601L878.5 601C857 601 814 601 771.2 601C728.3 601 685.7 601 642.8 601C600 601 557 601 514.2 601C471.3 601 428.7 601 385.8 601C343 601 300 601 257.2 601C214.3 601 171.7 601 128.8 601C86 601 43 601 21.5 601L0 601Z" fill="#ae0000"></path><path d="M0 244L21.5 247.2C43 250.3 86 256.7 128.8 261.2C171.7 265.7 214.3 268.3 257.2 266.8C300 265.3 343 259.7 385.8 255.2C428.7 250.7 471.3 247.3 514.2 243.5C557 239.7 600 235.3 642.8 232.7C685.7 230 728.3 229 771.2 237C814 245 857 262 878.5 270.5L900 279L900 601L878.5 601C857 601 814 601 771.2 601C728.3 601 685.7 601 642.8 601C600 601 557 601 514.2 601C471.3 601 428.7 601 385.8 601C343 601 300 601 257.2 601C214.3 601 171.7 601 128.8 601C86 601 43 601 21.5 601L0 601Z" fill="#c3291b"></path><path d="M0 343L21.5 337.8C43 332.7 86 322.3 128.8 316.7C171.7 311 214.3 310 257.2 314.3C300 318.7 343 328.3 385.8 336.8C428.7 345.3 471.3 352.7 514.2 348.2C557 343.7 600 327.3 642.8 327.2C685.7 327 728.3 343 771.2 352C814 361 857 363 878.5 364L900 365L900 601L878.5 601C857 601 814 601 771.2 601C728.3 601 685.7 601 642.8 601C600 601 557 601 514.2 601C471.3 601 428.7 601 385.8 601C343 601 300 601 257.2 601C214.3 601 171.7 601 128.8 601C86 601 43 601 21.5 601L0 601Z" fill="#d74232"></path><path d="M0 398L21.5 405C43 412 86 426 128.8 425.8C171.7 425.7 214.3 411.3 257.2 407.8C300 404.3 343 411.7 385.8 415.8C428.7 420 471.3 421 514.2 424.2C557 427.3 600 432.7 642.8 434.7C685.7 436.7 728.3 435.3 771.2 433.3C814 431.3 857 428.7 878.5 427.3L900 426L900 601L878.5 601C857 601 814 601 771.2 601C728.3 601 685.7 601 642.8 601C600 601 557 601 514.2 601C471.3 601 428.7 601 385.8 601C343 601 300 601 257.2 601C214.3 601 171.7 601 128.8 601C86 601 43 601 21.5 601L0 601Z" fill="#eb5949"></path><path d="M0 531L21.5 524C43 517 86 503 128.8 495.8C171.7 488.7 214.3 488.3 257.2 495.7C300 503 343 518 385.8 522.2C428.7 526.3 471.3 519.7 514.2 516.8C557 514 600 515 642.8 511.2C685.7 507.3 728.3 498.7 771.2 498.2C814 497.7 857 505.3 878.5 509.2L900 513L900 601L878.5 601C857 601 814 601 771.2 601C728.3 601 685.7 601 642.8 601C600 601 557 601 514.2 601C471.3 601 428.7 601 385.8 601C343 601 300 601 257.2 601C214.3 601 171.7 601 128.8 601C86 601 43 601 21.5 601L0 601Z" fill="#ff6f61"></path></svg>