<svg id="visual" viewBox="0 0 900 600" width="900" height="600" xmlns="http://www.w3.org/2000/svg" xmlns:xlink="http://www.w3.org/1999/xlink" version="1.1"><rect x="0" y="0" width="900" height="600" fill="#4FACF7"></rect><path d="M0 487L16.7 481.3C33.3 475.7 66.7 464.3 100 453.8C133.3 443.3 166.7 433.7 200 429.8C233.3 426 266.7 428 300 428C333.3 428 366.7 426 400 429.5C433.3 433 466.7 442 500 448.2C533.3 454.3 566.7 457.7 600 472C633.3 486.3 666.7 511.7 700 517C733.3 522.3 766.7 507.7 800 504.7C833.3 501.7 866.7 510.3 883.3 514.7L900 519L900 601L883.3 601C866.7 601 833.3 601 800 601C766.7 601 733.3 601 700 601C666.7 601 633.3 601 600 601C566.7 601 533.3 601 500 601C466.7 601 433.3 601 400 601C366.7 601 333.3 601 300 601C266.7 601 233.3 601 200 601C166.7 601 133.3 601 100 601C66.7 601 33.3 601 16.7 601L0 601Z" fill="#331c00" stroke-linecap="round" stroke-linejoin="miter"></path></svg>