<svg id="visual" viewBox="0 0 900 600" width="900" height="600" xmlns="http://www.w3.org/2000/svg" xmlns:xlink="http://www.w3.org/1999/xlink" version="1.1"><rect x="0" y="0" width="900" height="600" fill="#331C00"></rect><path d="M0 407L25 413.7C50 420.3 100 433.7 150 436.3C200 439 250 431 300 423.3C350 415.7 400 408.3 450 406.3C500 404.3 550 407.7 600 415C650 422.3 700 433.7 750 441.2C800 448.7 850 452.3 875 454.2L900 456L900 0L875 0C850 0 800 0 750 0C700 0 650 0 600 0C550 0 500 0 450 0C400 0 350 0 300 0C250 0 200 0 150 0C100 0 50 0 25 0L0 0Z" fill="#ae0000"></path><path d="M0 413L25 405.5C50 398 100 383 150 382.2C200 381.3 250 394.7 300 392.7C350 390.7 400 373.3 450 367.2C500 361 550 366 600 363.3C650 360.7 700 350.3 750 352.2C800 354 850 368 875 375L900 382L900 0L875 0C850 0 800 0 750 0C700 0 650 0 600 0C550 0 500 0 450 0C400 0 350 0 300 0C250 0 200 0 150 0C100 0 50 0 25 0L0 0Z" fill="#ba1c11"></path><path d="M0 353L25 347.7C50 342.3 100 331.7 150 320C200 308.3 250 295.7 300 300.7C350 305.7 400 328.3 450 341.2C500 354 550 357 600 350.5C650 344 700 328 750 321C800 314 850 316 875 317L900 318L900 0L875 0C850 0 800 0 750 0C700 0 650 0 600 0C550 0 500 0 450 0C400 0 350 0 300 0C250 0 200 0 150 0C100 0 50 0 25 0L0 0Z" fill="#c52e21"></path><path d="M0 269L25 261.5C50 254 100 239 150 245.5C200 252 250 280 300 288.5C350 297 400 286 450 279.3C500 272.7 550 270.3 600 275.5C650 280.7 700 293.3 750 288.8C800 284.3 850 262.7 875 251.8L900 241L900 0L875 0C850 0 800 0 750 0C700 0 650 0 600 0C550 0 500 0 450 0C400 0 350 0 300 0C250 0 200 0 150 0C100 0 50 0 25 0L0 0Z" fill="#d03d2f"></path><path d="M0 230L25 232C50 234 100 238 150 241.2C200 244.3 250 246.7 300 241.8C350 237 400 225 450 219.3C500 213.7 550 214.3 600 216.2C650 218 700 221 750 221.7C800 222.3 850 220.7 875 219.8L900 219L900 0L875 0C850 0 800 0 750 0C700 0 650 0 600 0C550 0 500 0 450 0C400 0 350 0 300 0C250 0 200 0 150 0C100 0 50 0 25 0L0 0Z" fill="#db4b3d"></path><path d="M0 196L25 189.2C50 182.3 100 168.7 150 161.8C200 155 250 155 300 160.7C350 166.3 400 177.7 450 173.2C500 168.7 550 148.3 600 148.7C650 149 700 170 750 179.2C800 188.3 850 185.7 875 184.3L900 183L900 0L875 0C850 0 800 0 750 0C700 0 650 0 600 0C550 0 500 0 450 0C400 0 350 0 300 0C250 0 200 0 150 0C100 0 50 0 25 0L0 0Z" fill="#e6584b"></path><path d="M0 74L25 77.2C50 80.3 100 86.7 150 87.5C200 88.3 250 83.7 300 86.2C350 88.7 400 98.3 450 101.2C500 104 550 100 600 103C650 106 700 116 750 122.8C800 129.7 850 133.3 875 135.2L900 137L900 0L875 0C850 0 800 0 750 0C700 0 650 0 600 0C550 0 500 0 450 0C400 0 350 0 300 0C250 0 200 0 150 0C100 0 50 0 25 0L0 0Z" fill="#f0655a"></path><path d="M0 50L25 44.2C50 38.3 100 26.7 150 20.2C200 13.7 250 12.3 300 18.3C350 24.3 400 37.7 450 49.2C500 60.7 550 70.3 600 77C650 83.7 700 87.3 750 77.3C800 67.3 850 43.7 875 31.8L900 20L900 0L875 0C850 0 800 0 750 0C700 0 650 0 600 0C550 0 500 0 450 0C400 0 350 0 300 0C250 0 200 0 150 0C100 0 50 0 25 0L0 0Z" fill="#fa7268"></path></svg>