<svg id="visual" viewBox="0 0 900 600" width="900" height="600" xmlns="http://www.w3.org/2000/svg" xmlns:xlink="http://www.w3.org/1999/xlink" version="1.1"><rect x="0" y="0" width="900" height="600" fill="#4facf7"></rect><path d="M0 128L21.5 133.3C43 138.7 86 149.3 128.8 149.8C171.7 150.3 214.3 140.7 257.2 148C300 155.3 343 179.7 385.8 172.2C428.7 164.7 471.3 125.3 514.2 114C557 102.7 600 119.3 642.8 127.8C685.7 136.3 728.3 136.7 771.2 130C814 123.3 857 109.7 878.5 102.8L900 96L900 0L878.5 0C857 0 814 0 771.2 0C728.3 0 685.7 0 642.8 0C600 0 557 0 514.2 0C471.3 0 428.7 0 385.8 0C343 0 300 0 257.2 0C214.3 0 171.7 0 128.8 0C86 0 43 0 21.5 0L0 0Z" fill="#331c00" stroke-linecap="round" stroke-linejoin="miter"></path></svg>