<svg id="visual" viewBox="0 0 900 600" width="900" height="600" xmlns="http://www.w3.org/2000/svg" xmlns:xlink="http://www.w3.org/1999/xlink" version="1.1"><path d="M0 25L25 33C50 41 100 57 150 60C200 63 250 53 300 51C350 49 400 55 450 53C500 51 550 41 600 43C650 45 700 59 750 64C800 69 850 65 875 63L900 61L900 0L875 0C850 0 800 0 750 0C700 0 650 0 600 0C550 0 500 0 450 0C400 0 350 0 300 0C250 0 200 0 150 0C100 0 50 0 25 0L0 0Z" fill="#fa7268"></path><path d="M0 73L25 76C50 79 100 85 150 91C200 97 250 103 300 111C350 119 400 129 450 121C500 113 550 87 600 85C650 83 700 105 750 110C800 115 850 103 875 97L900 91L900 59L875 61C850 63 800 67 750 62C700 57 650 43 600 41C550 39 500 49 450 51C400 53 350 47 300 49C250 51 200 61 150 58C100 55 50 39 25 31L0 23Z" fill="#ff9d4c"></path><path d="M0 199L25 204C50 209 100 219 150 216C200 213 250 197 300 195C350 193 400 205 450 213C500 221 550 225 600 230C650 235 700 241 750 230C800 219 850 191 875 177L900 163L900 89L875 95C850 101 800 113 750 108C700 103 650 81 600 83C550 85 500 111 450 119C400 127 350 117 300 109C250 101 200 95 150 89C100 83 50 77 25 74L0 71Z" fill="#ffd13a"></path><path d="M0 319L25 327C50 335 100 351 150 361C200 371 250 375 300 372C350 369 400 359 450 366C500 373 550 397 600 391C650 385 700 349 750 347C800 345 850 377 875 393L900 409L900 161L875 175C850 189 800 217 750 228C700 239 650 233 600 228C550 223 500 219 450 211C400 203 350 191 300 193C250 195 200 211 150 214C100 217 50 207 25 202L0 197Z" fill="#ffe739"></path><path d="M0 427L25 431C50 435 100 443 150 445C200 447 250 443 300 434C350 425 400 411 450 421C500 431 550 465 600 464C650 463 700 427 750 427C800 427 850 463 875 481L900 499L900 407L875 391C850 375 800 343 750 345C700 347 650 383 600 389C550 395 500 371 450 364C400 357 350 367 300 370C250 373 200 369 150 359C100 349 50 333 25 325L0 317Z" fill="#ffd13a"></path><path d="M0 511L25 510C50 509 100 507 150 505C200 503 250 501 300 494C350 487 400 475 450 479C500 483 550 503 600 501C650 499 700 475 750 476C800 477 850 503 875 516L900 529L900 497L875 479C850 461 800 425 750 425C700 425 650 461 600 462C550 463 500 429 450 419C400 409 350 423 300 432C250 441 200 445 150 443C100 441 50 433 25 429L0 425Z" fill="#ff9d4c"></path><path d="M0 601L25 601C50 601 100 601 150 601C200 601 250 601 300 601C350 601 400 601 450 601C500 601 550 601 600 601C650 601 700 601 750 601C800 601 850 601 875 601L900 601L900 527L875 514C850 501 800 475 750 474C700 473 650 497 600 499C550 501 500 481 450 477C400 473 350 485 300 492C250 499 200 501 150 503C100 505 50 507 25 508L0 509Z" fill="#fa7268"></path></svg>