<svg id="visual" viewBox="0 0 960 540" width="960" height="540" xmlns="http://www.w3.org/2000/svg" xmlns:xlink="http://www.w3.org/1999/xlink" version="1.1"><path d="M0 66L32 65C64 64 128 62 192 54.8C256 47.7 320 35.3 384 37.2C448 39 512 55 576 61.2C640 67.3 704 63.7 768 57.3C832 51 896 42 928 37.5L960 33L960 0L928 0C896 0 832 0 768 0C704 0 640 0 576 0C512 0 448 0 384 0C320 0 256 0 192 0C128 0 64 0 32 0L0 0Z" fill="#fa7268"></path><path d="M0 120L32 114.5C64 109 128 98 192 85.3C256 72.7 320 58.3 384 62C448 65.7 512 87.3 576 96.3C640 105.3 704 101.7 768 94.5C832 87.3 896 76.7 928 71.3L960 66L960 31L928 35.5C896 40 832 49 768 55.3C704 61.7 640 65.3 576 59.2C512 53 448 37 384 35.2C320 33.3 256 45.7 192 52.8C128 60 64 62 32 63L0 64Z" fill="#ff9d4c"></path><path d="M0 233L32 214.2C64 195.3 128 157.7 192 151.3C256 145 320 170 384 183.5C448 197 512 199 576 194.5C640 190 704 179 768 165.5C832 152 896 136 928 128L960 120L960 64L928 69.3C896 74.7 832 85.3 768 92.5C704 99.7 640 103.3 576 94.3C512 85.3 448 63.7 384 60C320 56.3 256 70.7 192 83.3C128 96 64 107 32 112.5L0 118Z" fill="#ffd13a"></path><path d="M0 282L32 265.8C64 249.7 128 217.3 192 230.8C256 244.3 320 303.7 384 319.8C448 336 512 309 576 303.5C640 298 704 314 768 323.8C832 333.7 896 337.3 928 339.2L960 341L960 118L928 126C896 134 832 150 768 163.5C704 177 640 188 576 192.5C512 197 448 195 384 181.5C320 168 256 143 192 149.3C128 155.7 64 193.3 32 212.2L0 231Z" fill="#ffe739"></path><path d="M0 460L32 459.2C64 458.3 128 456.7 192 458.5C256 460.3 320 465.7 384 469.2C448 472.7 512 474.3 576 465.3C640 456.3 704 436.7 768 425C832 413.3 896 409.7 928 407.8L960 406L960 339L928 337.2C896 335.3 832 331.7 768 321.8C704 312 640 296 576 301.5C512 307 448 334 384 317.8C320 301.7 256 242.3 192 228.8C128 215.3 64 247.7 32 263.8L0 280Z" fill="#ffd13a"></path><path d="M0 503L32 504C64 505 128 507 192 506.2C256 505.3 320 501.7 384 502.5C448 503.3 512 508.7 576 505C640 501.3 704 488.7 768 479.7C832 470.7 896 465.3 928 462.7L960 460L960 404L928 405.8C896 407.7 832 411.3 768 423C704 434.7 640 454.3 576 463.3C512 472.3 448 470.7 384 467.2C320 463.7 256 458.3 192 456.5C128 454.7 64 456.3 32 457.2L0 458Z" fill="#ff9d4c"></path><path d="M0 541L32 541C64 541 128 541 192 541C256 541 320 541 384 541C448 541 512 541 576 541C640 541 704 541 768 541C832 541 896 541 928 541L960 541L960 458L928 460.7C896 463.3 832 468.7 768 477.7C704 486.7 640 499.3 576 503C512 506.7 448 501.3 384 500.5C320 499.7 256 503.3 192 504.2C128 505 64 503 32 502L0 501Z" fill="#fa7268"></path></svg>