<svg id="visual" viewBox="0 0 960 540" width="960" height="540" xmlns="http://www.w3.org/2000/svg" xmlns:xlink="http://www.w3.org/1999/xlink" version="1.1"><rect x="0" y="0" width="960" height="540" fill="#4facf7"></rect><path d="M0 143L20 144.8C40 146.7 80 150.3 120 151.2C160 152 200 150 240 149.2C280 148.3 320 148.7 360 155C400 161.3 440 173.7 480 182C520 190.3 560 194.7 600 194C640 193.3 680 187.7 720 180.5C760 173.3 800 164.7 840 159.8C880 155 920 154 940 153.5L960 153L960 0L940 0C920 0 880 0 840 0C800 0 760 0 720 0C680 0 640 0 600 0C560 0 520 0 480 0C440 0 400 0 360 0C320 0 280 0 240 0C200 0 160 0 120 0C80 0 40 0 20 0L0 0Z" fill="#78cc41"></path><path d="M0 129L20 125.5C40 122 80 115 120 118C160 121 200 134 240 128.5C280 123 320 99 360 89.2C400 79.3 440 83.7 480 95C520 106.3 560 124.7 600 121.7C640 118.7 680 94.3 720 87.8C760 81.3 800 92.7 840 96.3C880 100 920 96 940 94L960 92L960 0L940 0C920 0 880 0 840 0C800 0 760 0 720 0C680 0 640 0 600 0C560 0 520 0 480 0C440 0 400 0 360 0C320 0 280 0 240 0C200 0 160 0 120 0C80 0 40 0 20 0L0 0Z" fill="#726908"></path><path d="M0 37L20 37.2C40 37.3 80 37.7 120 43.5C160 49.3 200 60.7 240 66.8C280 73 320 74 360 67.5C400 61 440 47 480 50.3C520 53.7 560 74.3 600 79C640 83.7 680 72.3 720 70.8C760 69.3 800 77.7 840 75C880 72.3 920 58.7 940 51.8L960 45L960 0L940 0C920 0 880 0 840 0C800 0 760 0 720 0C680 0 640 0 600 0C560 0 520 0 480 0C440 0 400 0 360 0C320 0 280 0 240 0C200 0 160 0 120 0C80 0 40 0 20 0L0 0Z" fill="#331c00"></path></svg>