<svg id="visual" viewBox="0 0 900 900" width="900" height="900" xmlns="http://www.w3.org/2000/svg" xmlns:xlink="http://www.w3.org/1999/xlink" version="1.1"><rect x="0" y="0" width="900" height="900" fill="#ffe739"></rect><g transform="translate(447.0846977758739 518.6945064908344)"><path d="M300.5 -389.7C359.9 -308.2 358.2 -185.5 370.2 -72C382.3 41.6 408.1 146 369 212.4C330 278.8 226 307.1 129.6 331.6C33.2 356.1 -55.7 376.8 -147.7 362.2C-239.6 347.7 -334.6 297.8 -368.2 221.4C-401.8 145 -374 42 -355.8 -62.9C-337.5 -167.9 -328.8 -274.7 -271.1 -356.5C-213.4 -438.3 -106.7 -495.2 6.9 -503.4C120.5 -511.6 241 -471.3 300.5 -389.7" fill="#FFFFFF"></path></g></svg>