<svg id="visual" viewBox="0 0 960 540" width="960" height="540" xmlns="http://www.w3.org/2000/svg" xmlns:xlink="http://www.w3.org/1999/xlink" version="1.1"><rect x="0" y="0" width="960" height="540" fill="#4facf7"></rect><path d="M0 437L26.7 437.5C53.3 438 106.7 439 160 434.7C213.3 430.3 266.7 420.7 320 412.3C373.3 404 426.7 397 480 402.7C533.3 408.3 586.7 426.7 640 434.8C693.3 443 746.7 441 800 437C853.3 433 906.7 427 933.3 424L960 421L960 541L933.3 541C906.7 541 853.3 541 800 541C746.7 541 693.3 541 640 541C586.7 541 533.3 541 480 541C426.7 541 373.3 541 320 541C266.7 541 213.3 541 160 541C106.7 541 53.3 541 26.7 541L0 541Z" fill="#78cc41"></path><path d="M0 446L26.7 453.2C53.3 460.3 106.7 474.7 160 474.5C213.3 474.3 266.7 459.7 320 456.7C373.3 453.7 426.7 462.3 480 467C533.3 471.7 586.7 472.3 640 470.2C693.3 468 746.7 463 800 465.8C853.3 468.7 906.7 479.3 933.3 484.7L960 490L960 541L933.3 541C906.7 541 853.3 541 800 541C746.7 541 693.3 541 640 541C586.7 541 533.3 541 480 541C426.7 541 373.3 541 320 541C266.7 541 213.3 541 160 541C106.7 541 53.3 541 26.7 541L0 541Z" fill="#726908"></path><path d="M0 492L26.7 496.5C53.3 501 106.7 510 160 514.5C213.3 519 266.7 519 320 511.7C373.3 504.3 426.7 489.7 480 485.5C533.3 481.3 586.7 487.7 640 493C693.3 498.3 746.7 502.7 800 503C853.3 503.3 906.7 499.7 933.3 497.8L960 496L960 541L933.3 541C906.7 541 853.3 541 800 541C746.7 541 693.3 541 640 541C586.7 541 533.3 541 480 541C426.7 541 373.3 541 320 541C266.7 541 213.3 541 160 541C106.7 541 53.3 541 26.7 541L0 541Z" fill="#331c00"></path></svg>