<svg id="visual" viewBox="0 0 900 900" width="900" height="900" xmlns="http://www.w3.org/2000/svg" xmlns:xlink="http://www.w3.org/1999/xlink" version="1.1"><rect x="0" y="0" width="900" height="900" fill="#ffe739"></rect><g transform="translate(455.3186104945687 394.82405765910653)"><path d="M258.3 -302.6C321.1 -255 349.2 -160.8 376.5 -58.6C403.9 43.7 430.6 153.8 399.8 253C369 352.2 280.7 440.4 182.9 455.6C85.2 470.8 -22.1 413 -111.9 358.2C-201.7 303.5 -274 251.7 -332.4 178.4C-390.8 105.1 -435.2 10.3 -421.8 -75.9C-408.4 -162.1 -337.3 -239.6 -257.3 -284.1C-177.4 -328.6 -88.7 -340.1 4.5 -345.5C97.7 -350.8 195.4 -350.1 258.3 -302.6" fill="#FFFFFF"></path></g></svg>